<svg width="188" height="189" xmlns="http://www.w3.org/2000/svg" xmlns:xlink="http://www.w3.org/1999/xlink" overflow="hidden"><defs><clipPath id="clip0"><rect x="201" y="12" width="188" height="189"/></clipPath></defs><g clip-path="url(#clip0)" transform="translate(-201 -12)"><path d="M372.075 35.9577C360.535 19.0986 342.327 15.993 325.658 14.2183 301.552 12 249.494 12 239.236 16.4366 234.364 18.2113 230.004 22.6479 226.157 27.0845 213.335 43.0563 204.872 65.6831 202.564 89.6408 200 113.599 203.334 138.444 211.027 159.739 213.848 167.282 217.438 174.824 222.054 180.592 230.261 190.352 241.544 193.458 252.058 195.232 273.343 199.225 294.628 201 315.913 200.113 331.3 199.225 347.456 197.451 360.791 186.359 375.665 174.38 386.179 151.31 387.974 127.352 389 114.93 387.974 102.951 386.436 90.9718 384.384 73.669 380.794 48.8239 372.075 35.9577Z" fill="#0D446E" fill-rule="evenodd"/></g></svg>