<svg width="188" height="184" xmlns="http://www.w3.org/2000/svg" xmlns:xlink="http://www.w3.org/1999/xlink" overflow="hidden"><defs><clipPath id="clip0"><rect x="420" y="22" width="188" height="184"/></clipPath></defs><g clip-path="url(#clip0)" transform="translate(-420 -22)"><path d="M432.551 178.426C437.78 188.432 444.84 191.212 451.377 193.435 492.167 207.332 533.741 209 574.531 198.438 580.545 196.771 586.559 194.547 591.789 187.321 603.555 172.312 608 135.624 606.693 102.826 606.17 90.0412 604.862 76.7 601.986 65.5824 597.802 50.0176 591.004 39.4559 583.944 33.3412 576.623 27.7824 569.04 26.1147 561.719 25.0029 530.081 20 469.157 26.1147 469.157 26.1147 462.359 27.2265 455.56 29.45 448.762 32.2294 444.579 33.8971 440.134 36.1206 436.211 41.1235 424.445 56.6882 420 94.4882 422.092 127.841 423.138 146.741 426.275 166.753 432.551 178.426Z" fill="#0D446E" fill-rule="evenodd"/></g></svg>